<svg xmlns="http://www.w3.org/2000/svg" width="27" height="27" viewBox="0 0 27 27">
  <g id="quote" transform="translate(-4.5 -4.5)">
    <path id="Path_10" data-name="Path 10" d="M13.5,4.5A9.037,9.037,0,0,0,6.847,6.847,9.037,9.037,0,0,0,4.5,13.5v18H15.75v-18H9a4.828,4.828,0,0,1,1.028-3.472A4.828,4.828,0,0,1,13.5,9" fill="#5d5d5d"/>
    <path id="Path_11" data-name="Path 11" d="M29.25,4.5A9.037,9.037,0,0,0,22.6,6.847,9.037,9.037,0,0,0,20.25,13.5v18H31.5v-18H24.75a4.828,4.828,0,0,1,1.028-3.472A4.828,4.828,0,0,1,29.25,9" fill="#5d5d5d"/>
  </g>
</svg>
