<?xml version="1.0" encoding="UTF-8"?>
<!DOCTYPE svg PUBLIC "-//W3C//DTD SVG 1.1//EN" "http://www.w3.org/Graphics/SVG/1.1/DTD/svg11.dtd">
<!-- Creator: CorelDRAW 2019 (64-Bit) -->
<svg xmlns="http://www.w3.org/2000/svg" xml:space="preserve" width="3.867in" height="3.982in" version="1.1" style="shape-rendering:geometricPrecision; text-rendering:geometricPrecision; image-rendering:optimizeQuality; fill-rule:evenodd; clip-rule:evenodd"
viewBox="0 0 3867 3982"
 xmlns:xlink="http://www.w3.org/1999/xlink">
 <defs>
  <style type="text/css">
   <![CDATA[
    .fil0 {fill:black}
   ]]>
  </style>
 </defs>
 <g id="Layer_x0020_1">
  <metadata id="CorelCorpID_0Corel-Layer"/>
  <g id="_1457719055360">
   <path class="fil0" d="M2152.47 2223.7l0 937.91c-141.42,0 -81.78,-65.82 -238.59,-65.82 -62.94,0 -110.37,21.81 -148.87,48.58 -42.62,29.63 -89.91,17.24 -180.22,17.24 -134.38,0 -268.76,0 -403.13,0l220.55 -388.26c63.21,-105.15 124.25,-202.29 65,-333.33 -85.6,-189.31 -355.89,-214.79 -471.39,-23.7 -40.21,66.54 -72.42,126.77 -111.93,192.48 -19.71,32.78 -34.79,61 -54.51,93.57 -10.65,17.59 -16.87,30.41 -26.56,47.49l-32.53 49.74 0 -2262.5c-0.22,-176.33 45.26,-308.28 194.8,-372.87 44.05,-19.03 98.98,-30.26 158.97,-30.26l1267 0c230.87,0 354.34,149.07 353.78,394.9l-0.01 2246.06c-28.71,6.69 -42.94,12.58 -65.82,24.68 0,-178.2 -0.96,-356.66 0.06,-534.83 2.31,-404.02 -526.6,-349.81 -526.6,-41.08zm-1513.81 -559.45c-101.67,53.8 -123.38,160.43 -178.15,274.35l-175.51 375.71c-47.94,107.77 -107.06,224.58 -107.06,361.89l0 1275.22 131.64 0 0 -1201.18c0,-206.34 70.95,-312.43 137.16,-455.2 32.96,-71.08 60.14,-135.7 93.32,-202.86 21.99,-44.51 73.83,-177.3 98.61,-205.8 0,298.26 -7.76,689.03 -0.3,979.34 1.23,47.81 27.14,109.8 19.86,133.99l-60.7 104.31c29.42,15.57 96.39,58.6 123.41,65.82l398.19 -696.04c68.91,-99.69 235.31,-45.99 235.31,70.76 0,61.04 -121.91,251.37 -156.73,312.22 -204.01,356.55 -207.84,254.49 -49.41,519.19 52.19,87.21 82.73,131.96 82.73,254.59l0 320.86 131.63 0c0,-177.24 21.28,-397.58 -35.07,-532.61 -21.28,-51 -55.78,-91.74 -63.65,-125.57l394.91 0c-33.69,144.6 47.43,239.83 136.36,390.19 21.7,36.68 159.91,265.98 168.05,300.91 52.93,-12.33 73.52,-45.96 123.41,-57.59 -6.75,-28.99 -19.99,-44.78 -32.47,-66.26 -39.37,-67.71 -263.71,-438.78 -263.71,-476.74 0,-51.41 -4.34,-75.06 30.21,-109.66 53.8,-53.86 150.96,-60.55 205.34,22.2l109.57 186.61c30.04,53.22 30.43,73.62 99.15,73.62 62.78,0 49.44,-115.31 49.37,-139.85l-0.01 -962.6c0,-126.83 -21.68,-278.36 62.6,-324.08 105.92,-57.46 198.29,16.37 201,134.53 6.5,283.77 0.95,667.15 -0.35,962.94 -0.31,71.81 -6.22,131.61 65.85,131.61 90.59,0 66.5,-127.91 65.76,-263.33 -1.44,-266.02 193.35,-205.43 237.72,-138.88 75.77,113.67 -43.43,402.2 91.43,402.2 158.58,0 -44.87,-392.87 197.46,-393.19 85.26,-0.11 131.26,69.68 131.98,162.48 0.75,95.45 -28.06,230.72 65.46,230.72 128.26,0 13.63,-210.52 108.84,-294.3 68.6,-60.37 220.25,-41.24 220.25,121.53l0 765.13 131.64 0 0 -814.5c0,-114.23 -124.37,-238.59 -238.59,-238.59 -121.15,0 -106.26,9.34 -197.45,57.59 -47.64,-90.03 -137.41,-123.41 -238.59,-123.41 -74.26,0 -108.3,32.19 -156.31,57.59 -30.57,-57.78 -84.73,-98.5 -156.32,-115.18 0,-52.57 11.09,-2311.61 -5.74,-2396.63 -41.5,-209.57 -224.98,-375.96 -430.3,-375.96l-1365.73 0c-144.56,0 -276.89,92.07 -341.03,177.29 -100.31,133.27 -95.02,210.28 -95.02,431.53 0,351.03 0,702.06 0,1053.09z"/>
   <path class="fil0" d="M1231.02 1450.34c0,-100.08 44.12,-225.34 95.12,-299.79 135.93,-198.39 424.45,-287.32 645.47,-177.53 69.57,34.56 66.72,28.28 121.45,76 52,45.34 12.17,0.09 65.76,65.88 221.63,272.02 138.57,651.72 -187.21,812.76 -162.51,80.34 -378.13,53.07 -512.79,-46.95l-73.42 -58.21c-15.13,-15.17 -14.25,-19.56 -29.16,-36.66 -75.66,-86.77 -125.22,-212.11 -125.22,-335.5zm-131.64 -32.91c0,216.52 56.2,364.8 191.25,499.84 256.53,256.54 676.97,256.41 933.92,0.06 255.06,-254.46 257.38,-676.48 -0.06,-933.92 -256.47,-256.48 -677.39,-256.48 -933.86,0 -91.04,91.04 -191.25,256.17 -191.25,434.02z"/>
   <path class="fil0" d="M1691.74 1121.25c-238.91,0 -267.44,333.17 -52.86,390.19 81.19,21.57 250.32,-31.61 250.32,70.54 0,84.38 -135.21,65.81 -189.22,65.81 -44.26,0 -65.58,-29.46 -74.05,-65.81l-131.64 0c0,114.17 83.28,197.45 197.45,197.45l0 65.82 131.64 0 0 -65.82c238.92,0 267.44,-333.17 52.87,-390.19 -81.19,-21.57 -250.32,31.61 -250.32,-70.54 0,-84.38 135.2,-65.81 189.23,-65.81 44.25,0 65.57,29.46 74.04,65.81l131.63 0c0,-114.17 -83.28,-197.45 -197.45,-197.45l0 -65.82 -131.64 0 0 65.82z"/>
   <path class="fil0" d="M1560.11 2832.52c0,-32.5 37.36,-65.82 74.05,-65.82l246.81 0c95.71,0 95.71,131.64 0,131.64l-246.81 0c-36.69,0 -74.05,-33.32 -74.05,-65.82zm-131.64 -16.46c0,127.43 80.29,213.91 181,213.91l296.18 0c100.71,0 181,-86.48 181,-213.91 0,-90.51 -90.49,-181 -181,-181l-296.18 0c-90.51,0 -181,90.49 -181,181z"/>
   <path class="fil0" d="M3024.56 940.25l92.31 96.93 86.91 -82.27 1.78 758.7 131.63 0 0 -756.91 84.23 80.31 98.74 -94.79c-81.2,-55.77 -184.7,-215.89 -248.79,-215.89 -64.51,0 -168.41,161.4 -246.82,213.91z"/>
   <path class="fil0" d="M-3.07 940.25l92.32 96.93 86.91 -82.27 1.78 758.7 131.64 0 0 -756.91 84.23 80.31 98.74 -94.79c-81.2,-55.77 -184.7,-215.89 -248.79,-215.89 -64.51,0 -168.41,161.4 -246.82,213.91z"/>
   <polygon class="fil0" points="1494.29,397.25 2020.83,397.25 2020.83,265.61 1494.29,265.61 "/>
   <polygon class="fil0" points="1231.02,397.25 1362.65,397.25 1362.65,265.61 1231.02,265.61 "/>
   <polygon class="fil0" points="177.93,1976.88 309.56,1976.88 309.56,1845.25 177.93,1845.25 "/>
   <polygon class="fil0" points="3205.56,1976.88 3337.19,1976.88 3337.19,1845.25 3205.56,1845.25 "/>
   <polygon class="fil0" points="3205.56,2240.16 3337.19,2240.16 3337.19,2108.52 3205.56,2108.52 "/>
  </g>
 </g>
</svg>
