<?xml version="1.0" encoding="UTF-8"?>
<!DOCTYPE svg PUBLIC "-//W3C//DTD SVG 1.1//EN" "http://www.w3.org/Graphics/SVG/1.1/DTD/svg11.dtd">
<!-- Creator: CorelDRAW 2019 (64-Bit) -->
<svg xmlns="http://www.w3.org/2000/svg" xml:space="preserve" width="5.19in" height="7.019in" version="1.1" style="shape-rendering:geometricPrecision; text-rendering:geometricPrecision; image-rendering:optimizeQuality; fill-rule:evenodd; clip-rule:evenodd"
viewBox="0 0 5190 7019"
 xmlns:xlink="http://www.w3.org/1999/xlink">
 <defs>
  <style type="text/css">
   <![CDATA[
    .fil0 {fill:black}
   ]]>
  </style>
 </defs>
 <g id="Layer_x0020_1">
  <metadata id="CorelCorpID_0Corel-Layer"/>
  <path class="fil0" d="M2606.75 0.3l-29.14 0c-47.88,5.26 -84.91,34.37 -84.91,85.62 0,32.39 8.28,65.44 31.81,88.91 17.97,17.92 42.37,27.45 67.67,27.45 25.29,0 49.69,-9.53 67.67,-27.45 23.53,-23.46 31.81,-56.51 31.81,-88.91 0,-51.25 -37.03,-80.35 -84.91,-85.62zm-1454.15 4045.7l262.75 217.42c480.95,333.45 1068.55,456.59 1640.26,322.53 613.23,-143.79 1109.77,-558.4 1387,-1120.77 315.63,-640.28 234.36,-1460.37 -177.08,-2039.79 -214.39,-301.92 -453.57,-504.9 -785.12,-671.54 -527.81,-265.29 -1236.08,-269.32 -1765.35,-5.64l-439.72 286.96c-13.06,12.33 -26.56,24.16 -40.26,35.78 -22.38,18.98 -45.1,37.46 -66.95,57.07 -26.5,23.78 -51.29,48.84 -74.82,75.57 -305.39,346.76 -541.38,810.13 -541.38,1280.58 0,374.04 24.51,650.18 194.4,990.02 106.86,213.76 238.06,402.33 406.27,571.81zm-401.71 -1450.93c0,-257.51 63.85,-518.53 165.49,-754.28 81.9,-189.98 230.27,-399.47 376.17,-545.36 235.13,-235.13 525.75,-402.38 848.69,-482.83 402.96,-100.38 825,-57.26 1205.24,106.66 392.03,169.01 752.52,529.5 921.53,921.53 162.42,376.75 206.25,796.17 108.94,1195.94 -79.5,326.59 -247.63,620.51 -485.1,857.98 -449.29,449.29 -1082.57,629.16 -1702.33,491.3 -831.69,-185.01 -1438.61,-938.19 -1438.61,-1790.94zm663.49 -452.83c-58.19,12.06 -113.87,38.73 -113.87,106.26 0,60.95 63.92,110.03 102.88,149.3 12.31,12.41 24.76,24.43 38.23,35.58 13.18,10.91 26.91,21.3 40.3,31.98 31.23,24.92 61.19,55.77 89.03,84.43 36.22,37.29 71.66,75.36 107.44,113.08 33.87,35.7 68.02,71.39 103.44,105.54 25.31,24.41 54.31,51.8 83.54,71.37l22.48 15.06 -6.14 26.35c-29.76,127.75 -43.41,260.27 -64.74,389.71 -8.96,54.36 -21.03,108.34 -31.67,162.4 -13.09,66.52 -48.46,235.88 3.06,291.39 17.59,18.94 44.38,23.42 69.09,23.42 23.19,0 103.31,-38.41 125.41,-49.09 75.59,-36.52 149.95,-76.87 223.73,-116.93 77.75,-42.21 155.25,-85.28 233.78,-126.01 32.29,-16.75 116.2,-62.12 151.8,-62.12 35.74,0 119.47,44.86 151.94,61.56 78.51,40.39 155.99,83.2 233.64,125.24 74.18,40.15 148.83,80.63 224.68,117.54 21.32,10.37 102.31,49.56 124.46,49.79 28.87,0 59.76,-5.62 77.7,-30.44 41.34,-57.18 7.11,-181.24 -3.47,-244.78 -11.21,-67.35 -22.38,-134.7 -33.61,-202.04 -21.54,-129.15 -35.21,-262.26 -64.89,-389.65l-6.14 -26.35 22.48 -15.06c23.26,-15.57 46.89,-37.66 67.29,-56.82 30.16,-28.32 59.38,-57.81 88.25,-87.44 46.9,-48.15 92.63,-97.6 139.85,-145.37 61.46,-62.18 269.48,-211.58 269.48,-301.66 0,-62.38 -48.43,-90.81 -103.23,-103.89l-479.35 -73.36c-38.43,-5.88 -76.7,-12.76 -115.11,-18.8 -43.91,-6.92 -92.08,-14.33 -136.52,-14.33l-31.07 0 -7.05 -30.26c-5.94,-25.52 -20.72,-57.19 -31.65,-81.07 -18.4,-40.22 -38.37,-79.9 -58.57,-119.24 -33.13,-64.51 -68.35,-128.3 -100.74,-193.08 -18.9,-37.8 -36.65,-76.08 -54.19,-114.52 -13.98,-30.62 -27.79,-61.5 -42.97,-91.54 -17.87,-35.37 -42.62,-80.76 -77.37,-102.17 -20.66,-12.73 -43.74,-16.7 -67.71,-16.7 -4.69,0 -9.31,0.58 -13.85,1.75 -32.91,8.46 -61.52,48.08 -78.62,75.11 -31.61,49.96 -56.63,107.52 -81.17,161.32 -13.26,29.08 -26.58,58.16 -40.88,86.75 -32.39,64.78 -67.61,128.57 -100.74,193.08 -20.2,39.34 -40.18,79.02 -58.58,119.24 -10.93,23.88 -25.7,55.55 -31.65,81.07l-6.07 26.05 -752.39 108.34zm303.58 164.16c55.95,-1.25 116.23,-12.02 171.39,-21.64 46.15,-8.05 92.3,-16.81 138.65,-23.57 51.83,-7.56 104.7,-11.73 156.16,-20.76 33.46,-5.87 71.98,-14.96 99.47,-35.97 5.01,-3.82 9.68,-8.06 13.95,-12.69 5.7,-6.17 12.67,-18.07 17.12,-25.3 11.11,-18.02 21.62,-36.54 31.92,-55.04 28.33,-50.89 55.33,-102.73 81.65,-154.7 25.83,-51 51.15,-102.45 75.02,-154.4 8.83,-19.22 17.53,-38.59 25.55,-58.16 3.83,-9.35 9.07,-21.54 11.36,-31.35l7.05 -30.26 89.87 0 7.05 30.26c2.05,8.81 7.3,20.62 10.78,29.03 7.97,19.2 16.57,38.22 25.28,57.1 23.85,51.73 48.98,103.01 74.53,153.92 25.76,51.33 52.09,102.54 79.54,152.99 9.94,18.29 20.06,36.58 30.69,54.48 4.38,7.37 10.73,18.75 16.25,25.21 11.9,13.92 25.29,25.08 41.58,33.51 26.03,13.47 57.47,18.98 86.24,23.03 45.15,6.35 90.42,10.33 135.24,17.25l388.31 56.36 -34.56 51.6c-22.16,33.08 -59.04,68.43 -87.58,96.37 -42.5,41.62 -86.14,82.15 -129.2,123.2 -46.02,43.87 -92.89,88.77 -135.27,136.17 -11.96,13.37 -54.92,63.09 -57.21,79.94 0,39.63 4.43,80.16 9.89,119.38 6.43,46.08 14.76,91.96 23.45,137.67 11.16,58.66 23.19,117.22 33.31,176.06 8.27,48.1 16.52,100.29 16.52,149.13l0 65 -57.45 -30.4c-75.76,-40.09 -151,-81.03 -226.13,-122.28 -49.77,-27.32 -99.58,-55.12 -150.11,-80.98 -42.04,-21.51 -105.24,-54.43 -154.08,-50.65 -30.36,2.35 -62.35,17.61 -89.21,31.05 -54.57,27.3 -107.84,57.3 -162.55,84.65 -88.5,44.25 -175.15,91.95 -262.59,138.22l-57.45 30.4 0 -65c0,-48.28 8.31,-99.68 16.74,-147.19 8.08,-45.54 17.81,-90.89 25.38,-136.48 7,-42.09 14.55,-84.06 22.24,-126.03 5.33,-29.13 10.87,-58.37 15.26,-87.66 4.1,-27.35 9.45,-64.63 0.35,-91.48 -8.37,-24.7 -31.37,-48.79 -49.2,-67.07 -43.35,-44.46 -89.64,-86.82 -133.66,-130.84 -34.47,-34.47 -70.55,-67.59 -105.54,-101.57 -22.53,-21.88 -44.89,-44.08 -66.26,-67.09 -18.06,-19.44 -36.61,-40.44 -51.39,-62.5l-39.73 -59.33 71.38 -1.59zm2388.51 3687.6c42.33,3.52 78.61,16.3 119.3,25.08 139.76,30.15 279.03,62.39 418.91,92.15 89.53,19.04 179.39,37.63 269.5,53.72 35.01,6.25 70.21,12.19 105.46,16.91 21.8,2.92 45.83,6.08 67.84,6.08 25.39,0 51.26,-5.75 66.75,-27.52 30.57,-42.97 11.97,-123.56 -13.91,-165.02 -54.68,-87.64 -106.63,-177.2 -157.65,-267.02 -56.48,-99.42 -111.8,-199.51 -167.09,-299.59 -88.18,-159.61 -175.98,-319.96 -268.82,-476.91 -36.49,-61.69 -67.99,-125.91 -103.78,-187.91 -37.54,-65.04 -75.84,-129.57 -110.98,-195.97l-10.93 -20.67 13.01 -19.43c13.5,-20.16 27.8,-37.57 45.78,-53.88 14.24,-12.92 29.66,-24.69 44.24,-37.27 47.71,-41.16 91.99,-88.65 133.06,-136.36 48.33,-56.15 93.87,-115.06 137.06,-175.23 45.04,-62.73 87.89,-127.36 127.75,-193.51 33.56,-55.7 65.98,-113.62 93.04,-172.79 20.61,-45.09 41.4,-90.1 61.39,-135.47 50.63,-114.89 92.84,-227.95 123.06,-350.07 140.32,-566.98 116.59,-1130.98 -105.44,-1673.65 -75.56,-184.7 -174.78,-364 -294.41,-523.81 -40.95,-54.71 -77.81,-112.04 -123.26,-163.3 -312.88,-352.96 -699.68,-627.65 -1149.13,-777.42 -34.62,-11.54 -68.42,-25.5 -102.94,-37.37 -56.87,-19.56 -131.62,-41.37 -183.58,1.37 -76.59,63 -15.16,158.65 61.84,182.22 79.41,24.3 158.21,50.04 236.11,78.84 62.26,23.02 123.76,47.86 184.87,73.76l1.63 0.69 182.64 97.64c92.51,50.9 183.48,115.03 266.81,179.75 81.44,63.24 164.72,134.11 234.45,210.17 550.16,600.21 800.27,1386.72 617.21,2189.16 -104.63,458.62 -316.77,823.77 -634.4,1167.32 -23.49,25.4 -50.67,42.73 -74.72,66.45 -296.05,291.99 -680.65,491.69 -1086.27,579.16 -82.66,17.82 -165.62,32.04 -249.21,44.72 -202.92,30.77 -415.55,27.74 -618.64,-0.04 -223.39,-30.56 -452.23,-93.49 -654.27,-194.65 -130.43,-65.31 -259.64,-126.6 -378.36,-212.61 -115.31,-83.54 -229.27,-174.02 -330.04,-274.79 -205.41,-205.41 -362.64,-447.92 -487.55,-709.22 -124.21,-259.84 -189.99,-550.15 -206.52,-836.99 -12.76,-221.36 3.33,-446.58 49.75,-663.47 78.44,-366.55 245.78,-695.03 477.39,-987.99 129.19,-163.41 279.44,-303.89 447.18,-427.11 57.16,-41.99 116.42,-82.51 177.28,-118.94l1.56 -0.94 387.69 -185.48 1.67 -0.62c52.56,-19.51 111.47,-30.14 165.7,-45.93 48.39,-14.08 120.94,-38.42 149.56,-83.11 10.7,-16.72 14.48,-34.91 13.58,-54.61 -2.45,-53.8 -55.36,-102.91 -109.25,-102.91 -22.35,0 -57.38,9.99 -78.94,16.12 -41.19,11.72 -82.07,25.73 -122.33,40.28 -65.99,23.84 -134.3,49.96 -198.24,78.94 -208.94,94.72 -424.67,203.27 -596.65,357.29 -123.04,110.19 -249.3,216.39 -356.07,343.16 -374.25,444.35 -618.72,1006.05 -618.72,1592.62 0,235.04 15.69,465.47 69.76,694.82 46.34,196.55 118.35,382.71 202.18,566.03 97.61,213.45 239,421.25 406.17,586.1 27.69,27.31 50.14,60.44 78.19,86.28 15.73,14.5 32.46,27 48.47,40.97 19.2,16.75 33.92,34.54 48.09,55.69l13.43 20.05 -813.75 1438.23 -0.41 0.67c-6.78,10.95 -12.74,22.45 -17.83,34.28 -16.26,37.79 -31.19,101.54 -5.61,138.51 15.82,22.87 44.7,28.28 70.78,28.28 88.7,0 180.78,-19.59 266.83,-39.92 72.1,-17.03 143.91,-36.18 216.59,-50.56 80.27,-15.88 160.61,-36.73 240.39,-55.22 46.24,-10.72 92.62,-21.14 139.21,-30.24 38.67,-7.56 78.7,-14.74 117.98,-18.01l25.76 -2.14 12.09 22.85c23.77,44.93 42.19,97.34 59.01,145.35 14.14,40.37 27.46,81.07 42,121.28 38.56,106.66 72.32,215.64 107.78,323.4 21.71,65.96 43.82,131.9 67.71,197.11 19.85,54.17 41.07,109.26 66.24,161.19 22.86,47.16 57.71,56.67 107.84,56.67 16,0 30,-4.08 43.21,-13.12 38.83,-26.58 65.36,-94.13 88.5,-134.33 40.43,-70.24 81.43,-140.08 120.3,-211.22 41.07,-75.18 82.97,-150.03 124.66,-224.88 78.3,-140.6 156.94,-281.01 236.1,-421.12 81.28,-143.86 162.94,-287.7 246.69,-430.14 28.93,-49.22 58.1,-98.54 88.52,-146.85 11.61,-18.44 37.5,-61.67 54.73,-74.29l23.14 -16.95 23.13 16.95c44.9,32.89 50.79,66.92 77.17,111.24l0.41 0.7 847.86 1493.66c37.99,63.35 144.41,69.12 181.42,1.32 23.47,-43 42.75,-94.93 59.92,-140.84 25.15,-67.27 48.41,-135.4 71.19,-203.5 37.18,-111.19 71.92,-223.74 110.59,-334.34 32.56,-93.1 58.39,-189.68 104.75,-277.28l12.09 -22.84 25.76 2.14zm-2535.54 611.24c-42.54,-31.17 -67.5,-122.3 -83.67,-171.47 -6.58,-20.03 -13.28,-40.1 -20.89,-59.76l-0.38 -1.02 -163.8 -460.52c-13.12,-38.09 -39.51,-118.13 -77.85,-138.81 -31.93,-17.22 -91.62,-5.9 -125.17,0.45 -41.58,7.86 -83.04,17.69 -124.29,27.12 -57.76,13.2 -115.52,26.12 -173.59,37.94l-451.39 91.89 13.84 -59.41c14.7,-63.09 47.87,-102.75 77.85,-157.62 26.25,-48.03 53.69,-95.22 81.27,-141.07l503.24 -899.15 35.23 23.59c346.11,231.77 857.52,478.57 1281.31,478.57l42.54 0 -3.53 42.39c-2.16,25.96 -26.2,72.32 -38,95.8 -27,53.74 -56.32,106.74 -85.64,159.25 -83.04,148.72 -169.25,295.93 -255,443.1 -83.91,144.02 -168.31,287.94 -250.16,433.15 -29.07,51.57 -58.08,103.48 -85.29,156.06 -8.78,16.97 -17.48,34.13 -25.37,51.54 -3.21,7.09 -8.24,17.72 -10,25.28l-13.45 57.73 -47.81 -35.03zm2611.69 -1885.42c5.76,21.56 22.45,50.04 33.75,69.41 12.82,21.96 26.45,43.41 39.39,65.28l241.21 425.18c53.7,94.66 108.4,188.73 161.93,283.51 35.76,63.31 71.39,126.83 105.71,190.93 12.52,23.38 24.96,46.92 36.62,70.74 6.69,13.69 15.93,32 19.37,46.77l13.84 59.41 -451.39 -91.87c-65.72,-13.38 -131.65,-24.74 -197.04,-39.83 -53.79,-12.41 -115.17,-27.08 -170.28,-30.53 -22.44,-1.4 -51.97,-1.48 -71.35,11.87 -26.88,18.52 -44.87,72.52 -54.99,101.87 -12.41,35.98 -23.72,72.41 -35.69,108.55 -16.39,49.51 -33.71,98.59 -52.54,147.23 -10.54,27.22 -19.46,56.59 -28.68,84.36 -15.6,47 -31.27,93.98 -47.59,140.74 -17.18,49.24 -34.97,98.88 -55.19,146.94 -11.39,27.05 -32.33,77.3 -56.28,94.85l-47.81 35.04 -13.45 -57.73c-8.02,-34.43 -15.74,-44.82 -33.94,-74.37l-0.37 -0.6 -336.61 -593.14c-63.42,-111.75 -128.42,-222.59 -192.53,-333.93 -32.02,-55.62 -61.5,-112.62 -94.69,-167.58 -34.45,-57.05 -82.54,-125.77 -91.15,-192.82l-5.66 -44.13 44.49 0c431.94,0 928.67,-242.44 1281.31,-478.57l45.48 -30.45 14.12 52.88z"/>
 </g>
</svg>
