<?xml version="1.0" encoding="UTF-8"?>
<!DOCTYPE svg PUBLIC "-//W3C//DTD SVG 1.1//EN" "http://www.w3.org/Graphics/SVG/1.1/DTD/svg11.dtd">
<!-- Creator: CorelDRAW 2019 (64-Bit) -->
<svg xmlns="http://www.w3.org/2000/svg" xml:space="preserve" width="5.144in" height="3.982in" version="1.1" style="shape-rendering:geometricPrecision; text-rendering:geometricPrecision; image-rendering:optimizeQuality; fill-rule:evenodd; clip-rule:evenodd"
viewBox="0 0 5144 3982"
 xmlns:xlink="http://www.w3.org/1999/xlink">
 <defs>
  <style type="text/css">
   <![CDATA[
    .fil0 {fill:black}
   ]]>
  </style>
 </defs>
 <g id="Layer_x0020_1">
  <metadata id="CorelCorpID_0Corel-Layer"/>
  <path class="fil0" d="M475.24 1980.85c25.47,0 49.78,-8.32 65.65,-29.03 12.56,-16.38 17.67,-38.28 13.31,-58.49 -8.2,-38 -43.31,-51.9 -78.96,-51.9 -20.34,0 -38.13,6.84 -50.17,23.72 -9.83,13.78 -13.91,31.61 -13.28,48.37 1.41,37.42 23.85,67.33 63.45,67.33zm4528.02 103.21c0,42.71 23.92,79.56 69.71,79.56 45.79,0 69.71,-36.84 69.71,-79.56 0,-22.74 -8.24,-42.37 -27.8,-54.81 -12.35,-7.86 -27.34,-11.56 -41.91,-11.56 -40.05,0 -69.71,24.8 -69.71,66.38zm-5004.61 549.28c0,20.89 2.26,50.44 19.79,64.92 16.94,14 49.25,16.13 70.19,16.81 43.72,1.44 88.39,-1.85 132.31,-1.85 19.02,0 35.55,-6.46 47.44,-21.62 10.19,-12.99 15.13,-30.06 15.56,-46.41 1.06,-39.41 -21.19,-71.39 -63,-71.39 -24.29,0 -48.59,-1.19 -72.87,-1.9 -34.74,-1 -110,-3.91 -136.54,22.55 -10.33,10.3 -12.87,24.82 -12.87,38.89zm4030.47 809.01c-64.01,38.9 -132.5,69.36 -196.77,107.74 -23.16,13.82 -47.06,27.01 -70.58,40.23 -41.02,23.07 -82.17,45.94 -123.44,68.56 -41.9,22.96 -83.96,45.8 -126.41,67.74 -15.61,8.07 -31.33,16.09 -47.23,23.57 -9.69,4.57 -21.93,10.47 -32.33,12.9l-39.27 9.15 0 -1737.98 17.04 -9.02c163.61,-86.57 324.65,-177.9 488.26,-264.47l46.98 -24.86 0 53.15c0,74.54 -1.7,149.22 -1.91,223.81 -0.13,47.68 -0.07,95.48 1.17,143.15 0.45,17.29 1.02,34.67 2.23,51.92 0.47,6.68 1,18.13 2.78,24.49 6.95,24.15 35.35,45.29 59.23,53.36 45.75,-4.43 169,-79.7 207.68,-102.85 30.42,-18.2 62.31,-34.06 93.96,-49.98 40.07,-20.16 83.12,-41.35 119.16,-68.14 7.81,-5.81 14.41,-12.7 19.85,-20.78 17.63,-26.22 21.69,-63.44 23.03,-94.23 2.02,-46.49 -1.21,-93.78 -1.21,-140.4 0,-115.28 0,-230.56 0,-345.85l0 -19.04 531.93 -289.1 0 53.83c0,83.37 -1.55,166.87 -1.82,250.28 -0.17,53.69 -0.2,107.46 0.72,161.14 0.33,19.32 0.75,38.7 1.7,58 0.38,7.72 0.61,19.89 2.23,27.13 6.3,23.89 21.95,41.12 46,47.61 9.61,2.59 19.77,3.19 29.63,1.95 36.29,-4.56 60.94,-30.66 60.94,-68.02l0 -661.18c0,-9.37 -1.84,-18.06 -6.14,-26.4 -11.49,-22.28 -39.83,-39.63 -61,-51.48 -36.07,-20.17 -73.86,-36.81 -109.74,-57.65 -77.55,-45.03 -157.17,-86.41 -234.81,-131.29 -107.51,-62.15 -217.95,-120.08 -327.69,-178.21 -123.75,-65.55 -249.22,-130.99 -369.39,-202.87l-352.61 -195.27c-46.16,-24.63 -91.67,-50.28 -136.76,-76.81 -31.93,-18.79 -63.57,-38.13 -95.58,-56.77 -31.59,-18.4 -75.35,-44.43 -112.67,-46.74 -42.17,-2.61 -93.63,24.89 -129.57,44.16 -39.89,21.39 -79.13,44.46 -118.29,67.17 -57.6,33.39 -115.27,66.6 -173.4,99.09l-291.31 156.23c-156.12,87.37 -313.71,172.17 -471.04,257.33 -195.67,105.91 -391.81,212.05 -583.67,324.73 -33.99,19.96 -64.92,30.06 -64.92,74.78l0 245.62 -1232.31 0c-3.83,0 -7.47,0.76 -10.99,2.29 -21.86,9.52 -32.4,42.45 -33.69,64.22 -2.6,43.67 19.39,72.91 65.03,72.91l1211.96 0 0 430.22 -621.99 0c-20.34,0 -38.13,6.84 -50.17,23.72 -9.83,13.78 -13.9,31.61 -13.28,48.37 1.41,37.42 23.85,67.33 63.45,67.33l621.99 0 0 592.96 -896.63 0c-16.94,0 -31.79,5.41 -42.98,18.41 -11.92,13.85 -17.17,33.31 -17.17,51.3 0,37.04 20.06,69.71 60.15,69.71l896.63 0 0 32.01c0,30.33 -0.76,60.61 -1.75,90.93 -0.76,23.17 -1.71,46.43 -1.71,69.61 0.01,25.7 0.74,59.28 13.46,82.36 10.33,18.77 28.7,31.23 47.23,40.99l1648.57 905.36c25.12,13.8 51.78,29 78.22,40.04 12.54,5.23 26.83,10.23 40.63,9.58 17.34,-0.82 37.04,-10.98 52.04,-18.99 35.96,-19.22 71.14,-41 106.83,-60.94l356.23 -193.57c19.64,-10.67 37.86,-23.17 57.5,-33.92l1177.3 -644.2 0.47 -0.24c30.33,-15.33 63.57,-35.01 63.57,-73.39l0 -467.91c0,-31.67 -23.73,-57.73 -53.57,-65.63 -32.7,-8.66 -59.97,6.75 -76.94,34.75 -15.69,25.89 -9.01,90.7 -8.93,122.34 0.26,101.75 0.01,203.5 0.01,305.26l0 18.86 -396.82 219.8 -0.67 0.33c-64.29,31.81 -126.52,67.7 -188.59,103.59l-0.67 0.38 -387.39 211.75zm461.69 -2649.31l405.76 222.61 -21.56 29.43c-11.71,15.98 -53.42,39.8 -70.86,50.19 -39.39,23.49 -79.59,45.92 -119.76,68.06 -37.97,20.93 -76.12,41.56 -114.39,61.94 -22.98,12.23 -46.15,24.74 -69.46,36.32 -21.4,10.62 -41.5,21.98 -62.07,34.02 -13.98,8.18 -27.65,16.18 -44.43,16.04 -17.07,-0.13 -30.86,-8.66 -44.9,-17.23 -21.13,-12.91 -41.83,-25.04 -63.88,-36.44 -272.81,-141.07 -537.23,-298.51 -807.5,-444.43l-250.49 -135.25c-25.81,-13.33 -51.3,-27.86 -76.59,-42.14 -34.43,-19.43 -68.76,-39.04 -103.17,-58.5 -40.17,-22.72 -80.45,-45.45 -121.18,-67.15 -14.95,-7.97 -30.03,-15.87 -45.32,-23.19 -6.7,-3.2 -16.48,-8.13 -23.61,-10.03l-75.96 -20.28 493.18 -277.47 0.85 -0.42c18.59,-9.05 38.03,-14.45 58.86,-12.62 26.28,2.3 49.5,15.73 71.57,29.14 30.41,18.47 59.42,36.5 91.3,52.67l0.49 0.25 800.35 440.9c22.59,12.13 46.13,21.94 68.34,34.84 40.99,23.8 83.85,44.11 124.43,68.74zm-677.79 620.49c-64.06,-34.17 -128.03,-68.46 -190.1,-104.52l-388.69 -212.45 -0.63 -0.38c-61.29,-37.26 -125.85,-69.52 -189.52,-102.48l-0.79 -0.43 -477.05 -264.19c-37.8,-19.46 -76.67,-34.89 -102.77,-70.52l-28.64 -39.1 47.2 -11c29.75,-6.93 55.14,-17.41 79.91,-35.26 18.37,-13.23 35.14,-29.88 57.28,-36.7 33.04,-10.17 65.13,5.46 92.53,22.88 61.85,39.32 126.96,75.31 191.3,110.4 79.69,43.46 160.07,85.7 240.39,127.98 74.07,39 148.18,77.95 221.8,117.81 62.69,33.94 125.52,68.52 186.43,105.56 68.11,41.41 140.53,75.17 209.28,115.55l488.95 287.2 -73.97 19.75c-8.46,2.26 -19.52,7.81 -27.43,11.66 -14.84,7.22 -29.46,15.04 -43.91,23 -23.76,13.11 -49.14,27.28 -71.69,42.38l-16.62 11.13 -203.26 -118.28zm-1657.07 -620.48c29.7,-18.13 64.66,-41.84 99.85,-45.42 27.96,-2.84 53.86,6.18 78.72,18.04 36.54,17.43 73.15,40.71 107.8,61.81l682.21 373.62c22.37,11.55 42.66,25.77 64.78,37.64l700.21 389.76 -80.69 18.8c-6.38,1.64 -15.89,6.34 -21.94,9.13 -15.14,6.99 -30.1,14.49 -44.95,22.06 -41.01,20.89 -81.62,42.74 -122.02,64.78 -36.09,19.69 -72.05,39.64 -107.83,59.87 -24.17,13.66 -48.57,27.39 -72.28,41.81 -9.8,5.96 -19.32,12.39 -29.01,18.54 -39.26,24.9 -81.23,43.97 -127.28,23.96l-1.37 -0.59 -1000.18 -550.14 -0.59 -0.36c-18.89,-11.49 -38.59,-20.67 -58.05,-31.05 -73.7,-39.31 -147.42,-78.45 -220.68,-118.61 -49.02,-26.88 -98.1,-54.06 -146.22,-82.52 -19.98,-11.82 -71.3,-40.93 -84.63,-59.11l-21.57 -29.43 405.74 -222.61zm1939.02 1300.11l0 -445.43 17.04 -9.02c26.3,-13.92 54.05,-25.45 79.7,-40.48 10.15,-5.94 19.89,-12.55 29.95,-18.64 19.67,-11.91 38.32,-19.9 60.81,-25.14l39.27 -9.15 0 415.62 -17.04 9.02c-53.35,28.23 -109.8,56.29 -159.91,89.85l-49.82 33.37zm-2411.18 -914.82c19.57,5.23 41.57,17.07 59.42,26.76 14.28,7.76 28.32,15.91 42.55,23.74l1063.46 585.34 0.59 0.36c61.84,37.63 128.44,66.74 190.7,103.91 64,38.2 130.29,71.95 196.13,106.79l17.04 9.02 0 1737.98 -39.27 -9.15c-21.59,-5.03 -40.02,-12.83 -59.05,-24.04 -14.72,-8.68 -28.66,-18.34 -43.75,-26.46 -161.81,-87.07 -322.17,-176.94 -482.67,-266.41 -192.64,-107.39 -385.65,-215.24 -581.62,-316.43l-0.4 -0.21 -403.4 -223.02 0 -1738.94 40.27 10.75z"/>
 </g>
</svg>
