<?xml version="1.0" encoding="UTF-8"?>
<!DOCTYPE svg PUBLIC "-//W3C//DTD SVG 1.1//EN" "http://www.w3.org/Graphics/SVG/1.1/DTD/svg11.dtd">
<!-- Creator: CorelDRAW 2019 (64-Bit) -->
<svg xmlns="http://www.w3.org/2000/svg" xml:space="preserve" width="3.974in" height="3.982in" version="1.1" style="shape-rendering:geometricPrecision; text-rendering:geometricPrecision; image-rendering:optimizeQuality; fill-rule:evenodd; clip-rule:evenodd"
viewBox="0 0 3974 3982"
 xmlns:xlink="http://www.w3.org/1999/xlink">
 <defs>
  <style type="text/css">
   <![CDATA[
    .fil0 {fill:black}
   ]]>
  </style>
 </defs>
 <g id="Layer_x0020_1">
  <metadata id="CorelCorpID_0Corel-Layer"/>
  <path class="fil0" d="M1474.84 802.17c0,71.82 -0.43,146.5 11.91,217.42 13.13,75.52 41.15,143.57 75.27,211.82 69.11,138.26 157.07,237.21 285.31,322.69 44.11,29.41 85.59,52.18 133.25,75.32 197.48,95.88 478.39,95.52 676.82,2.5 185.91,-87.16 328.59,-209.44 421.05,-395.27 118.28,-237.74 122.49,-514.01 10.37,-754.8 -14.74,-31.65 -35.23,-64.26 -54.35,-93.47 -19.17,-29.28 -41.01,-61.37 -64.26,-87.53 -153.79,-173.05 -373.64,-298.52 -609.63,-298.52 -195.56,0 -366.43,33.17 -526.07,151.39 -111.48,82.56 -216.65,197.84 -277.86,323.04 -46.1,94.3 -81.82,219.58 -81.82,325.39zm131.2 46.86c0,-388.26 328.42,-715.49 715.5,-715.49 100.98,0 199.41,26.22 291.81,65.59 145.9,62.15 299.41,209.43 359.3,357.19 98.13,242.12 86.28,473.68 -59.51,693.34 -190.51,287.02 -586.89,402.08 -896.7,245.9 -30.8,-15.53 -61.32,-31.61 -90.02,-50.81 -23.96,-16.03 -46.35,-34.01 -68.38,-52.57 -16.89,-14.24 -31.91,-23.74 -47.64,-40.17 -52.1,-54.39 -109.85,-140.22 -140.67,-208.93 -40.57,-90.46 -63.67,-194.92 -63.67,-294.04zm624.61 -362.74c-74.31,17.31 -146.55,106.07 -146.55,183.09 0,95.85 20.98,167.95 108.13,218.5 14.43,8.37 29.87,16.95 46.28,20.63 8.24,1.85 16.84,2.73 25.22,3.69 13.81,1.58 27.5,3.34 41.22,5.59 19.82,3.24 41.67,8.34 57.53,21.36 31,25.45 40.46,63.66 24.94,100.55 -12.16,28.92 -40.69,56.19 -73.7,56.19 -29.02,0 -54.04,-7 -77.05,-24.93 -16.24,-12.65 -28.22,-28.56 -43.5,-41.79 -15.49,-13.4 -30.67,-19.2 -51.29,-19.2 -30.33,0 -60.01,22.25 -64.83,52.91 -8.68,55.15 59.34,105.93 99.28,130.29 18.53,11.3 38.33,17.51 57.32,27.56l6.66 3.52 0 7.53c0,53.99 -18.73,158.03 65.26,156.13 19.62,-0.44 37.86,-5.82 50.22,-21.88 26.22,-34.05 15.72,-94.39 15.72,-134.24l0 -7.53 6.66 -3.52c15.44,-8.17 32.36,-15.53 47.25,-24.41 16.17,-9.65 29.64,-22.93 42.5,-36.26 3.67,-3.96 7.34,-8 10.91,-12.04 8.21,-9.28 15.47,-19.37 21.72,-30.06 28.49,-48.67 35.43,-108.37 22.27,-162.9 -14.61,-60.55 -52.41,-110.6 -106.21,-141.9 -29.28,-17.03 -62.31,-23.08 -95.16,-29.11 -28.09,-5.16 -62.88,-10.89 -84.2,-31.43 -16.59,-15.99 -21.96,-37.36 -21.96,-59.79 0,-52.23 53.6,-93.28 103.95,-86.34 29.45,4.06 44.63,13.84 66.13,32.86 22.62,20.02 37.99,25.35 68.95,25.35 22.78,0 46.9,-18.08 55.2,-38.96 15.04,-37.87 -18.57,-75.06 -45.53,-96.99 -24.13,-19.64 -48.68,-39.47 -81.01,-42.16l-11.47 -0.95 0 -11.52c0,-30.22 1.63,-61.6 -0.2,-91.67 -0.98,-16.05 -3.32,-37.3 -14.19,-50.04 -13.46,-15.76 -39.89,-17.62 -59.02,-17.62 -14.72,0 -29.81,2.91 -40.25,14.08 -24.06,25.75 -18.16,96.89 -17.67,130.17 0.07,5.03 0.13,10.06 0.13,15.08l0 9.93 -9.67 2.25zm-2232.07 2539.33l0 13.74c4.66,26.04 38.31,60.02 55.81,77.92 21.9,22.41 44.66,44.14 67.2,65.91 31.55,30.47 62.97,61.04 94.17,92.24l176.08 183.64c19.8,21.65 41.25,41.49 61.97,62.22l359.3 359.31c17.65,17.65 33.59,36.72 50.77,54.77 14.03,14.76 29.7,29.58 48.02,38.84 13.54,6.84 27.55,10.12 42.72,10.12 37.22,0 121.59,-99.43 149.33,-127.17 46.11,-46.11 94.72,-90.69 141.9,-135.8 31.3,-29.91 62.57,-59.96 93.06,-90.69 11.65,-11.74 23.25,-23.62 34.42,-35.82 6.58,-7.19 14.12,-15.38 19.61,-23.43 50.85,-74.55 54.14,-124.84 33.78,-212.24l-1.96 -8.42 7.19 -4.81c12.66,-8.47 23.89,-18.54 34.64,-29.29 30.33,-30.33 52.78,-58.54 91.18,-80.45 69.34,-39.58 140.28,-32.99 217.02,-32.96l968.82 0.26c119.33,0.03 261.52,-50.01 360.07,-115.22 36.52,-24.16 72.37,-59 103.04,-90.18 41.42,-42.09 80.85,-86.59 119.24,-131.44 59.56,-69.59 116.67,-141.01 174.35,-212.43l167.17 -199.38c35.55,-45.22 73.51,-88.22 110.52,-132.2 24.8,-29.46 49.87,-58.67 74.96,-87.87 17.82,-20.74 35.75,-41.51 52.96,-62.77 20.98,-25.94 42.76,-54.38 53.96,-86.17 13.55,-38.48 12.89,-87.35 12.89,-127.73l0 -62.4c0,-61.11 -48.45,-122.33 -92.89,-159.86 -32.86,-27.75 -74.01,-52.19 -115.98,-62.71 -69.9,-17.52 -136.51,-17.21 -202.16,14.7 -42.22,20.52 -78.93,51.34 -112.6,83.64 -38.84,37.25 -75.02,77.41 -112.94,115.34l-349.31 361.29 -8.8 -6.45c-19.03,-13.94 -34.98,-29.81 -52.2,-45.72 -24.19,-22.33 -45.57,-37.27 -77.01,-48.31 -50.98,-17.91 -114.5,-20.78 -168,-20.72 -53.6,0.06 -107.31,1.02 -160.91,1.61 -84.29,0.94 -168.59,1.74 -252.89,2.05 -92.22,0.33 -184.68,0.35 -276.87,-1.93 -33.19,-0.82 -66.61,-1.86 -99.72,-4.24 -15.12,-1.09 -41.71,-2.67 -55.76,-8.06 -180.48,-69.22 -379.31,-86.35 -568.96,-48.91 -180.65,35.66 -351.04,119.82 -485.2,246.51 -70.04,66.13 -129.1,142.93 -174.17,228.1l-3.52 6.66 -7.54 0c-85.77,0 -133.5,-2.02 -200.23,60.64l-273.24 273.52c-29.8,29.83 -61.7,59.34 -90.02,90.45 -12.2,13.41 -29.9,33.68 -33.25,52.31zm166.61 1.02l282.63 -278.62c24.8,-24.89 56.82,-59.52 92.96,-65.51 36.57,-6.06 68.48,17.43 92.89,41.86l546.56 546.97c19.19,19.21 38.38,38.52 56.93,58.35 13.56,14.5 27.11,29.52 39.1,45.35 15.57,20.56 31.13,45.63 28.06,72.56 -3.4,29.86 -29.92,55.87 -50.56,75.6 -16.57,15.83 -33.75,31.11 -50.64,46.61 -22.38,20.53 -44.4,41.36 -65.84,62.87 -28.47,28.56 -55.93,58.37 -84.06,87.31 -17.78,18.29 -35.76,36.49 -54.32,53.98 -13.8,13 -29.37,27.43 -45.12,37.98l-6.96 4.66 -6.96 -4.66c-16.67,-11.16 -33.19,-26.55 -47.77,-40.32 -19.77,-18.68 -38.93,-38.11 -57.87,-57.62 -29.94,-30.85 -59.2,-62.65 -89.57,-93.03 -63.64,-63.63 -133.24,-124.33 -190.91,-193.42l-21.14 -25.34c-22.72,-26.04 -47.94,-51.02 -72.5,-75.34 -32.48,-32.16 -65.43,-63.86 -98.34,-95.59 -39.5,-38.09 -79.16,-76.14 -117.82,-115.09 -15.17,-15.28 -30.26,-30.74 -44.76,-46.66 -9.67,-10.62 -20.24,-22.38 -28.23,-34.32l-5.76 -8.6zm1265.91 -838.83c120.28,0 218.96,4.86 333.39,46.57 24.64,8.98 47,20.76 72.67,27.32 20.05,5.12 46.91,6.28 67.6,7.28 37.7,1.83 75.65,2.12 113.39,2.14 100.26,0.04 200.67,-2.42 300.91,-4.38 105.69,-2.07 211.91,-4.41 317.59,-2.72 37.09,0.59 151.66,1.54 183.03,19.22 135.58,76.41 102.52,293.78 -52.19,311.53 -17.11,1.96 -35.13,2.41 -52.35,2.84 -26.29,0.66 -52.63,0.78 -78.93,0.78 -67.67,-0 -135.37,-0.96 -203.03,-1.87 -73.36,-0.98 -146.76,-2.17 -220.13,-2.27 -26.44,-0.04 -52.97,0.02 -79.41,0.8 -11.74,0.34 -29.67,0.39 -41.03,2.91 -79.8,17.72 -72.55,136.61 10.21,136.61l632.69 0c154.92,0 278.29,-107.53 304.99,-258.19 7.22,-40.73 -7.57,-68.56 16.38,-106.93l0.71 -1.14 463.84 -475.61c42.9,-42.91 84.35,-95.44 151.39,-95.44 101.56,0 176.54,64.6 176.54,168.73 0,61.45 -60.35,135.76 -98.3,180.61 -30.53,36.07 -63.4,70.65 -93.17,107.51l-426.94 510.74c-78.32,89.82 -131.11,177.56 -242.42,233.06 -49.24,24.55 -98.94,46.15 -153.24,56.64 -35.27,6.81 -70.98,8.85 -106.83,9.57 -49.64,1.01 -99.52,0.09 -149.19,0.09 -151.46,0 -303.03,-2.11 -454.52,-2.59 -98.85,-0.31 -197.77,-0.4 -296.61,0.9 -37.25,0.49 -74.56,1.15 -111.79,2.54 -21.91,0.82 -45.6,1.49 -67.31,4.43 -65.58,8.89 -131.83,26.09 -186.22,65.33 -17.75,12.81 -33.32,27.31 -48.68,42.83 -14.08,14.23 -27.78,28.95 -43.08,41.9 -6.06,5.13 -12.35,9.96 -18.95,14.38l-8.51 5.7 -625.07 -621.1 4.4 -8.22c138.17,-257.6 415.74,-422.52 708.14,-422.52zm278.08 457.73c0,92.47 131.2,106.15 131.2,0 0,-77.87 -131.2,-77.87 -131.2,0z"/>
 </g>
</svg>
