<svg xmlns="http://www.w3.org/2000/svg" width="23.238" height="23.238" viewBox="0 0 23.238 23.238">
  <path id="call" d="M20.876,25.487a9.777,9.777,0,0,1-4.566-1.556,29.679,29.679,0,0,1-7.17-5.362A27.224,27.224,0,0,1,3.756,11.4c-1.911-3.475-1.586-5.3-1.221-6.076a4.852,4.852,0,0,1,1.9-2.04A9.147,9.147,0,0,1,5.922,2.5l.143-.063a1.388,1.388,0,0,1,1.138-.1,3.333,3.333,0,0,1,1.082.83,17.969,17.969,0,0,1,2.706,4.016,4,4,0,0,1,.53,1.645,2.6,2.6,0,0,1-.661,1.546c-.068.093-.136.181-.2.268-.395.519-.481.668-.424.936a9.837,9.837,0,0,0,2.4,3.553,9.439,9.439,0,0,0,3.513,2.338c.279.06.432-.03.967-.44.077-.058.156-.12.238-.18a2.614,2.614,0,0,1,1.57-.7h0a3.762,3.762,0,0,1,1.653.58,19.8,19.8,0,0,1,4,2.686,3.346,3.346,0,0,1,.833,1.079,1.4,1.4,0,0,1-.1,1.141c-.019.043-.041.09-.063.142a9.153,9.153,0,0,1-.793,1.483,4.848,4.848,0,0,1-2.043,1.9,3.5,3.5,0,0,1-1.534.336Z" transform="translate(-2.257 -2.25)" fill="#070707"/>
</svg>
