<svg xmlns="http://www.w3.org/2000/svg" width="23.238" height="23.238" viewBox="0 0 23.238 23.238">
  <g id="Group_1183" data-name="Group 1183" transform="translate(-99.457)">
    <g id="bx-message-rounded-dots" transform="translate(99.457)">
      <path id="Path_82" data-name="Path 82" d="M16.183,14.091A2.091,2.091,0,1,1,14.091,12,2.091,2.091,0,0,1,16.183,14.091Z" transform="translate(-5.275 -5.275)" fill="#070707"/>
      <path id="Path_83" data-name="Path 83" d="M23.683,14.091A2.091,2.091,0,1,1,21.591,12,2.091,2.091,0,0,1,23.683,14.091Z" transform="translate(-7.17 -5.275)" fill="#070707"/>
      <path id="Path_84" data-name="Path 84" d="M14.619,3C8.212,3,3,7.17,3,12.3c0,3.379,2.2,6.407,5.809,8.056v5.886l6.2-4.652c6.224-.167,11.224-4.271,11.224-9.29C26.238,7.17,21.025,3,14.619,3Zm0,16.266h-.387l-3.1,2.324V18.782l-.745-.287c-3.122-1.2-5.064-3.579-5.064-6.2,0-3.844,4.17-6.971,9.3-6.971s9.3,3.127,9.3,6.971S19.744,19.266,14.619,19.266Z" transform="translate(-3 -3)" fill="#070707"/>
    </g>
  </g>
</svg>
