<svg xmlns="http://www.w3.org/2000/svg" width="23.238" height="23.238" viewBox="0 0 23.238 23.238">
  <path id="whatsapp" d="M14.9,13.375a6.935,6.935,0,0,1,1.475.66,6.563,6.563,0,0,1,1.354.8.632.632,0,0,1,.03.225A3.141,3.141,0,0,1,17.5,16.2a2.024,2.024,0,0,1-1.074.983,3.6,3.6,0,0,1-1.543.4,8.219,8.219,0,0,1-2.874-.931A8.627,8.627,0,0,1,9.44,14.876,19.825,19.825,0,0,1,7.2,12.1,5.224,5.224,0,0,1,6.127,9.186v-.12a3.309,3.309,0,0,1,1.12-2.372,1.149,1.149,0,0,1,.787-.33,2.409,2.409,0,0,1,.272.023,2.451,2.451,0,0,0,.287.023.626.626,0,0,1,.4.1,1.081,1.081,0,0,1,.235.413q.121.3.5,1.321a8.871,8.871,0,0,1,.379,1.126,1.522,1.522,0,0,1-.522.863q-.522.548-.522.7a.426.426,0,0,0,.075.225,6.772,6.772,0,0,0,1.543,2.057,9.66,9.66,0,0,0,2.284,1.516.674.674,0,0,0,.333.105q.227,0,.817-.728t.787-.728Zm-3.071,7.956a9.31,9.31,0,0,0,3.684-.751,9.32,9.32,0,0,0,5.06-5.021,9.211,9.211,0,0,0,0-7.311,9.488,9.488,0,0,0-2.027-3.01,9.6,9.6,0,0,0-3.033-2.012,9.416,9.416,0,0,0-7.368,0A9.6,9.6,0,0,0,5.113,5.239a9.488,9.488,0,0,0-2.027,3.01,9.273,9.273,0,0,0,1.059,9.18l-1.195,3.5,3.661-1.156a9.354,9.354,0,0,0,5.219,1.561Zm0-20.746a11.159,11.159,0,0,1,4.425.9A11.519,11.519,0,0,1,19.894,3.9a11.444,11.444,0,0,1,2.436,3.61,11.073,11.073,0,0,1,0,8.781,11.414,11.414,0,0,1-2.436,3.61,11.54,11.54,0,0,1-3.638,2.417,11.153,11.153,0,0,1-4.425.9,11.3,11.3,0,0,1-5.522-1.411L0,23.823l2.057-6.079a11.176,11.176,0,0,1-.726-10.23A11.419,11.419,0,0,1,3.767,3.9,11.545,11.545,0,0,1,7.406,1.486a11.14,11.14,0,0,1,4.425-.9Z" transform="translate(0 -0.585)" fill="#070707"/>
</svg>
