<?xml version="1.0" encoding="UTF-8"?>
<!DOCTYPE svg PUBLIC "-//W3C//DTD SVG 1.1//EN" "http://www.w3.org/Graphics/SVG/1.1/DTD/svg11.dtd">
<!-- Creator: CorelDRAW 2019 (64-Bit) -->
<svg xmlns="http://www.w3.org/2000/svg" xml:space="preserve" width="6.729in" height="6.729in" version="1.1" style="shape-rendering:geometricPrecision; text-rendering:geometricPrecision; image-rendering:optimizeQuality; fill-rule:evenodd; clip-rule:evenodd"
viewBox="0 0 6729 6729"
 xmlns:xlink="http://www.w3.org/1999/xlink">
 <defs>
  <style type="text/css">
   <![CDATA[
    .fil0 {fill:black}
   ]]>
  </style>
 </defs>
 <g id="Layer_x0020_1">
  <metadata id="CorelCorpID_0Corel-Layer"/>
  <path class="fil0" d="M562.89 2656.95c0,-561.46 235.02,-1096.11 614.31,-1475.41 47.46,-47.45 83.43,-71.47 131.39,-118.32 299.29,-292.33 886.61,-495.99 1344.02,-495.99 154.57,0 318.26,18.4 452.19,47.24 606.75,130.63 1171.65,556.19 1431.72,1118 90.1,194.63 159.01,344.98 190.62,571.67 62.13,445.67 31.3,854.34 -168.61,1259.87 -99.29,201.41 -252.43,427.1 -412.09,586.77l-123.75 112.82c-300.53,267.26 -833.31,496.22 -1251.79,496.22 -305.31,0 -366.24,2.72 -665.12,-70.88 -80.87,-19.92 -116.41,-38.77 -187.57,-62.15 -72.31,-23.76 -112.56,-49.07 -181.14,-81.72l-162.93 -86.79c-248.81,-148.17 -495.53,-378.19 -654.02,-620.83 -153.36,-234.8 -245.1,-446.48 -307.56,-717.59 -28.7,-124.59 -49.67,-305.75 -49.67,-462.91zm1954.74 -2654.87l325.77 0c114.71,7.5 228.5,23.07 340.17,47.32 153.86,33.41 400.52,104.75 538.15,171.57 169.95,82.52 134.83,55.74 311.63,161.51 276.84,165.63 484.18,353.25 691.96,596.04l151.16 203.7c163.53,259.85 209.52,352.26 307.85,625.3 171.58,476.46 196.37,1131.87 32.86,1613.43 -104.8,308.67 -190.3,514.45 -382.9,786.82 -32.67,46.2 -64.17,78.94 -91.96,131.46 43.56,65.06 1603.87,1610.44 1784.15,1790.72 72.05,72.04 200.43,168.21 200.43,299 0,179.17 -113.74,302.29 -262.86,302.29 -179.61,0 -226.82,-88.82 -345,-207 -181.35,-181.35 -1720.61,-1735.03 -1784.15,-1777.58 -52.15,27.59 -89.41,60.31 -138.83,97.74 -307.59,232.87 -788.74,412.33 -1179.32,463.54 -562.96,73.81 -1067.09,-19.43 -1555.76,-263.37 -60.92,-30.41 -96.6,-49.61 -153.19,-83.37 -370.26,-220.96 -579.34,-436.98 -848.33,-794.53 -83.39,-110.85 -155.23,-251.61 -212.17,-379.26 -202.99,-455.01 -249.54,-701.17 -249.54,-1222.46 0,-495.93 225.44,-1085.63 491.91,-1440.11 45.03,-59.89 88.4,-126.58 135.74,-179.69 77.57,-87 153.68,-174.25 241.74,-244.55 32.11,-25.64 48.83,-49.98 80.72,-77 421.24,-356.89 993.32,-584.72 1569.78,-621.54z"/>
 </g>
</svg>
