<?xml version="1.0" encoding="UTF-8"?>
<!DOCTYPE svg PUBLIC "-//W3C//DTD SVG 1.1//EN" "http://www.w3.org/Graphics/SVG/1.1/DTD/svg11.dtd">
<!-- Creator: CorelDRAW 2019 (64-Bit) -->
<svg xmlns="http://www.w3.org/2000/svg" xml:space="preserve" width="6.792in" height="6.792in" version="1.1" style="shape-rendering:geometricPrecision; text-rendering:geometricPrecision; image-rendering:optimizeQuality; fill-rule:evenodd; clip-rule:evenodd"
viewBox="0 0 6792 6792"
 xmlns:xlink="http://www.w3.org/1999/xlink">
 <defs>
  <style type="text/css">
   <![CDATA[
    .fil0 {fill:black}
   ]]>
  </style>
 </defs>
 <g id="Layer_x0020_1">
  <metadata id="CorelCorpID_0Corel-Layer"/>
  <path class="fil0" d="M4811.69 4367.43c4.78,5.18 9.76,10.27 13.73,14.52 20.18,21.62 40.74,42.93 61.32,64.17 67.61,69.8 135.98,138.92 204.37,207.95 199.46,201.31 400.05,401.53 600.74,601.61 187.14,186.57 374.51,372.91 561.94,559.18 108.8,108.12 217.87,216.02 326.33,324.48 42.98,42.97 88.16,80.72 127.59,127.7 46.55,55.45 82.01,119.25 82.01,193.43 0,117.5 -47.67,234.95 -152.57,296.02 -43.2,25.15 -91.67,37.57 -141.59,37.57 -192.31,0 -244.63,-93.66 -367.13,-216.17 -108.18,-108.17 -215.81,-216.94 -323.66,-325.45 -185.42,-186.54 -370.91,-373.02 -556.63,-559.27 -199.43,-200 -398.99,-399.92 -599.61,-598.72 -68.78,-68.16 -137.66,-136.29 -207.19,-203.69 -21.15,-20.5 -42.37,-40.99 -63.9,-61.11 -4.24,-3.96 -9.29,-8.91 -14.43,-13.66 -41.48,24.71 -77.93,55.64 -116.55,84.87 -316.08,239.3 -801.82,418.18 -1194.14,469.62 -558.49,73.22 -1071.17,-15.49 -1573.81,-266.4 -53.31,-26.61 -104.07,-53.96 -155.25,-84.5 -157.78,-94.16 -304.25,-198.67 -439.29,-323.56 -156.33,-144.58 -290.27,-309.23 -418.02,-479.04 -86.78,-115.35 -157.01,-253.66 -215.74,-385.32 -82.16,-184.17 -155.32,-370.28 -197.8,-567.99 -47.13,-219.39 -54.46,-443.58 -54.46,-667.22 0,-479.24 211.71,-1077.84 498.19,-1458.91 45.47,-60.49 87.01,-125.19 137.4,-181.71 77.28,-86.67 154.53,-175.5 245.57,-248.18 28.8,-22.99 51.64,-52.38 80.01,-76.42 436.33,-369.67 1018.04,-592.48 1588.02,-628.89l1 -0.06 327.8 0 1.02 0.07c115.89,7.57 231.26,23.32 344.77,47.97 90.43,19.64 181.05,44.26 269.5,71.4 91.59,28.1 189.46,60.75 275.67,102.61 49.67,24.12 100.06,46.36 149.67,70.3 56.2,27.12 110.85,60.5 164.36,92.51 276.26,165.28 491.03,358.76 699.67,602.55l0.71 0.83 152.52 205.53 0.64 1.02c65.92,104.74 131.67,210.76 185.69,322.25 48.5,100.11 87.47,204.54 125.13,309.11 91.13,253.05 135.74,534.81 143.62,803.12 8.08,275.24 -21.73,569.34 -110.57,830.98 -46.29,136.32 -95.15,271.94 -156.17,402.47 -64.96,138.94 -142.31,267.2 -230.81,392.35 -26.53,37.52 -56.02,70.98 -79.67,110.09zm-3190.67 95.08l161.65 86.11c59.75,28.48 113.3,59.07 176.81,79.94 27.91,9.17 55.18,19.49 82.72,29.63 34.05,12.54 67.28,23.17 102.57,31.86 107.07,26.37 215.84,51.99 325.84,62.29 108.94,10.2 222.38,7.68 331.8,7.68 404.32,0 930.61,-221.18 1230.7,-488.05l123.22 -112.33c82.65,-82.72 157.37,-176.37 224.13,-272.26 67.45,-96.89 129.3,-199.79 181.51,-305.7 197.52,-400.67 226.67,-804.26 165.69,-1241.7 -15.24,-109.33 -41.57,-211.63 -80.39,-314.89 -31.7,-84.31 -69.81,-166.26 -107.63,-247.96 -257.08,-555.35 -815.59,-972.61 -1409.9,-1100.56 -143.65,-30.93 -298.47,-46.54 -445.61,-46.54 -204.44,0 -418.13,40 -613.02,100.37 -245.44,76.04 -523.51,205.41 -709.13,386.71 -42.26,41.27 -89.4,76.33 -131.13,118.06 -382.19,382.2 -605.14,912.24 -605.14,1453.28 0,49.97 2.08,100.02 5.67,149.85 7.28,101.2 20.4,207.08 43.2,306.03 61.25,265.86 154.12,479.16 303.26,707.5 156.45,239.52 397.64,464.31 643.19,610.68z"/>
 </g>
</svg>
